<svg width="241" height="56" xmlns="http://www.w3.org/2000/svg" xmlns:xlink="http://www.w3.org/1999/xlink" overflow="hidden"><defs><clipPath id="clip0"><rect x="520" y="313" width="241" height="56"/></clipPath><clipPath id="clip1"><rect x="578.417" y="314.375" width="31.4026" height="33.2029"/></clipPath><clipPath id="clip2"><rect x="579.753" y="321.299" width="23.9318" height="26.3269"/></clipPath><clipPath id="clip3"><rect x="623.511" y="314.375" width="31.4026" height="33.2029"/></clipPath><clipPath id="clip4"><rect x="625.622" y="321.299" width="22.9346" height="26.3269"/></clipPath><clipPath id="clip5"><rect x="624.625" y="321.299" width="23.9317" height="26.3269"/></clipPath><clipPath id="clip6"><rect x="670.393" y="314.375" width="31.4026" height="33.2029"/></clipPath><clipPath id="clip7"><rect x="672.489" y="321.299" width="22.9346" height="26.3269"/></clipPath><clipPath id="clip8"><rect x="671.492" y="321.299" width="23.9318" height="26.3269"/></clipPath></defs><g clip-path="url(#clip0)" transform="translate(-520 -313)"><path d="M15.2534 0 15.2378-9.6132 10.4701-1.65154 9.27043-1.65154 4.51836-9.48856 4.51836 0 1.94757 0 1.94757-14.4899 4.16001-14.4899 9.92481-4.89229 15.565-14.4899 17.793-14.4899 17.8086 0Z" fill="#212121" transform="matrix(1 0 0 1.01045 519.351 367.496)"/><path d="M1.94757-14.4899 4.643-14.4899 4.643 0 1.94757 0Z" fill="#212121" transform="matrix(1 0 0 1.01045 542.22 367.496)"/><path d="M11.4361 0 8.47582-4.23791C8.35118-4.22622 8.16421-4.22233 7.91492-4.22233L4.643-4.22233 4.643 0 1.94757 0 1.94757-14.4899 7.91492-14.4899C9.16916-14.4899 10.2598-14.2796 11.1868-13.8667 12.1217-13.4616 12.8384-12.8695 13.337-12.0905 13.8355-11.3193 14.0848-10.4 14.0848-9.33275 14.0848-8.24211 13.8122-7.29949 13.2746-6.51267 12.7449-5.73364 11.9853-5.14937 10.9999-4.76765L14.3341 0ZM11.3738-9.33275C11.3738-10.2559 11.0661-10.9687 10.4546-11.4673 9.85081-11.9659 8.96271-12.2152 7.79028-12.2152L4.643-12.2152 4.643-6.43477 7.79028-6.43477C8.96271-6.43477 9.85081-6.68406 10.4546-7.18264 11.0661-7.689 11.3738-8.40571 11.3738-9.33275Z" fill="#212121" transform="matrix(1 0 0 1.01045 551.927 367.496)"/><path d="M11.3426-3.34982 4.09769-3.34982 2.66427 0-0.109064 0 6.41919-14.4899 9.06788-14.4899 15.6117 0 12.7916 0ZM10.4546-5.46877 7.72795-11.8101 5.01694-5.46877Z" fill="#212121" transform="matrix(1 0 0 1.01045 570.16 367.496)"/><path d="M14.8327-14.4899 14.8327 0 12.6047 0 4.61184-9.81575 4.61184 0 1.94757 0 1.94757-14.4899 4.16001-14.4899 12.1528-4.67417 12.1528-14.4899Z" fill="#212121" transform="matrix(1 0 0 1.01045 588.766 367.496)"/><path d="M4.89229-12.2152 0.0779028-12.2152 0.0779028-14.4899 12.3865-14.4899 12.3865-12.2152 7.57215-12.2152 7.57215 0 4.89229 0Z" fill="#212121" transform="matrix(1 0 0 1.01045 608.634 367.496)"/><path d="M1.94757-14.4899 4.643-14.4899 4.643 0 1.94757 0Z" fill="#212121" transform="matrix(1 0 0 1.01045 624.198 367.496)"/><path d="M12.2152-7.54099C13.0137-7.28001 13.6486-6.83986 14.116-6.21664 14.5912-5.60121 14.8327-4.84555 14.8327-3.94188 14.8327-2.68375 14.3497-1.71386 13.3837-1.02832 12.4177-0.342772 11.0038 0 9.14579 0L1.94757 0 1.94757-14.4899 8.74069-14.4899C10.4546-14.4899 11.7711-14.151 12.6982-13.4772 13.6213-12.8111 14.0848-11.8919 14.0848-10.7194 14.0848-10.0027 13.9173-9.36781 13.5862-8.81859 13.2513-8.26548 12.7955-7.84091 12.2152-7.54099ZM4.643-12.3865 4.643-8.38234 8.44466-8.38234C9.38728-8.38234 10.1118-8.54593 10.6104-8.88092 11.1167-9.22369 11.3738-9.72227 11.3738-10.3766 11.3738-11.0388 11.1167-11.5374 10.6104-11.8724 10.1118-12.2152 9.38728-12.3865 8.44466-12.3865ZM8.98998-2.11896C11.0661-2.11896 12.1061-2.81229 12.1061-4.20675 12.1061-5.59731 11.0661-6.29454 8.98998-6.29454L4.643-6.29454 4.643-2.11896Z" fill="#212121" transform="matrix(1 0 0 1.01045 633.905 367.496)"/><path d="M8.17979 0.202547C6.17379 0.202547 4.61184-0.358353 3.49004-1.48015 2.37603-2.60195 1.82292-4.21064 1.82292-6.31012L1.82292-14.4899 4.51836-14.4899 4.51836-6.41919C4.51836-3.57184 5.74143-2.15012 8.19537-2.15012 10.6454-2.15012 11.8724-3.57184 11.8724-6.41919L11.8724-14.4899 14.5211-14.4899 14.5211-6.31012C14.5211-4.21064 13.9641-2.60195 12.854-1.48015 11.7399-0.358353 10.1819 0.202547 8.17979 0.202547Z" fill="#212121" transform="matrix(1 0 0 1.01045 652.759 367.496)"/><path d="M6.43477 0.202547C5.32076 0.202547 4.24181 0.0467417 3.19401-0.264869 2.15401-0.584271 1.33214-1.00495 0.732286-1.52689L1.65154-3.63027C2.2436-3.15117 2.9681-2.76165 3.83282-2.46173 4.70533-2.16959 5.57005-2.02547 6.43477-2.02547 7.51372-2.02547 8.32002-2.19686 8.84975-2.53963 9.37949-2.89019 9.64436-3.34982 9.64436-3.91072 9.64436-4.3236 9.49245-4.66638 9.19253-4.93904 8.90039-5.2078 8.52646-5.41424 8.07073-5.56226 7.6111-5.71806 6.99567-5.89334 6.21664-6.092 5.10263-6.34908 4.20675-6.61005 3.52121-6.87102 2.84345-7.1281 2.25918-7.54099 1.7606-8.10189 1.26982-8.66279 1.02832-9.41844 1.02832-10.3766 1.02832-11.1752 1.24644-11.9035 1.6827-12.5579 2.11896-13.2123 2.77334-13.7304 3.64585-14.116 4.52615-14.5094 5.60121-14.708 6.87102-14.708 7.75133-14.708 8.61994-14.5912 9.47298-14.3653 10.3338-14.1471 11.0778-13.8277 11.701-13.4149L10.8441-11.3271C10.2092-11.701 9.54309-11.9814 8.84975-12.1684 8.16421-12.3632 7.49814-12.4644 6.85544-12.4644 5.79597-12.4644 5.00525-12.2814 4.4872-11.9191 3.96525-11.5647 3.70817-11.0934 3.70817-10.5013 3.70817-10.0845 3.85229-9.74174 4.14443-9.47298 4.44435-9.212 4.82218-9.00556 5.28181-8.84975 5.73754-8.70174 6.36076-8.53814 7.15147-8.35118 8.21874-8.10189 9.09904-7.84091 9.78459-7.57215 10.4779-7.29949 11.07-6.8905 11.5608-6.34129 12.0477-5.78818 12.2931-5.04031 12.2931-4.09769 12.2931-3.29529 12.0749-2.57079 11.6387-1.91641 11.2102-1.26982 10.5558-0.755656 9.67552-0.373933 8.79133 0.00779028 7.71237 0.202547 6.43477 0.202547Z" fill="#212121" transform="matrix(1 0 0 1.01045 672.193 367.496)"/><path d="M7.91492-14.4899C9.16916-14.4899 10.2598-14.2796 11.1868-13.8667 12.1217-13.4616 12.8384-12.8695 13.337-12.0905 13.8355-11.3193 14.0848-10.4 14.0848-9.33275 14.0848-8.28106 13.8355-7.3696 13.337-6.59057 12.8384-5.81155 12.1217-5.21169 11.1868-4.79881 10.2598-4.38203 9.16916-4.17559 7.91492-4.17559L4.643-4.17559 4.643 0 1.94757 0 1.94757-14.4899ZM7.79028-6.46593C8.96271-6.46593 9.85081-6.70743 10.4546-7.19822 11.0661-7.69679 11.3738-8.40571 11.3738-9.33275 11.3738-10.2559 11.0661-10.9687 10.4546-11.4673 9.85081-11.9659 8.96271-12.2152 7.79028-12.2152L4.643-12.2152 4.643-6.46593Z" fill="#212121" transform="matrix(1 0 0 1.01045 697.132 367.496)"/><path d="M12.8228-2.25918 12.8228 0 1.94757 0 1.94757-14.4899 12.5268-14.4899 12.5268-12.2307 4.643-12.2307 4.643-8.47582 11.6387-8.47582 11.6387-6.2478 4.643-6.2478 4.643-2.25918Z" fill="#212121" transform="matrix(1 0 0 1.01045 715.262 367.496)"/><path d="M4.89229-12.2152 0.0779028-12.2152 0.0779028-14.4899 12.3865-14.4899 12.3865-12.2152 7.57215-12.2152 7.57215 0 4.89229 0Z" fill="#212121" transform="matrix(1 0 0 1.01045 732.233 367.496)"/><path d="M6.43477 0.202547C5.32076 0.202547 4.24181 0.0467417 3.19401-0.264869 2.15401-0.584271 1.33214-1.00495 0.732286-1.52689L1.65154-3.63027C2.2436-3.15117 2.9681-2.76165 3.83282-2.46173 4.70533-2.16959 5.57005-2.02547 6.43477-2.02547 7.51372-2.02547 8.32002-2.19686 8.84975-2.53963 9.37949-2.89019 9.64436-3.34982 9.64436-3.91072 9.64436-4.3236 9.49245-4.66638 9.19253-4.93904 8.90039-5.2078 8.52646-5.41424 8.07073-5.56226 7.6111-5.71806 6.99567-5.89334 6.21664-6.092 5.10263-6.34908 4.20675-6.61005 3.52121-6.87102 2.84345-7.1281 2.25918-7.54099 1.7606-8.10189 1.26982-8.66279 1.02832-9.41844 1.02832-10.3766 1.02832-11.1752 1.24644-11.9035 1.6827-12.5579 2.11896-13.2123 2.77334-13.7304 3.64585-14.116 4.52615-14.5094 5.60121-14.708 6.87102-14.708 7.75133-14.708 8.61994-14.5912 9.47298-14.3653 10.3338-14.1471 11.0778-13.8277 11.701-13.4149L10.8441-11.3271C10.2092-11.701 9.54309-11.9814 8.84975-12.1684 8.16421-12.3632 7.49814-12.4644 6.85544-12.4644 5.79597-12.4644 5.00525-12.2814 4.4872-11.9191 3.96525-11.5647 3.70817-11.0934 3.70817-10.5013 3.70817-10.0845 3.85229-9.74174 4.14443-9.47298 4.44435-9.212 4.82218-9.00556 5.28181-8.84975 5.73754-8.70174 6.36076-8.53814 7.15147-8.35118 8.21874-8.10189 9.09904-7.84091 9.78459-7.57215 10.4779-7.29949 11.07-6.8905 11.5608-6.34129 12.0477-5.78818 12.2931-5.04031 12.2931-4.09769 12.2931-3.29529 12.0749-2.57079 11.6387-1.91641 11.2102-1.26982 10.5558-0.755656 9.67552-0.373933 8.79133 0.00779028 7.71237 0.202547 6.43477 0.202547Z" fill="#212121" transform="matrix(1 0 0 1.01045 747.797 367.496)"/><g clip-path="url(#clip1)"><path d="M156.705 158.15C156.705 167.226 149.675 174.58 141.004 174.58 132.333 174.58 125.303 167.226 125.303 158.15 125.303 149.079 132.333 141.725 141.004 141.725 149.675 141.725 156.705 149.079 156.705 158.15" fill="#FF7256" transform="matrix(1 0 0 1.01045 453.115 171.169)"/></g><g clip-path="url(#clip2)"><path d="M145.826 154.314C143.762 152.822 139.909 153.126 139.909 153.126 138.39 150.372 139.341 148.709 137.833 148.825 136.326 148.942 135.746 152.066 135.629 152.872 135.512 153.683 134.815 155.073 134.815 155.073 134.815 155.073 132.497 157.27 131.683 160.277 131.029 162.708 128.407 165.434 127.422 166.396 130.14 171.289 135.204 174.58 141.004 174.58 141.748 174.58 142.476 174.522 143.193 174.42 143.435 171.935 142.819 169.684 143.197 167.577 143.762 164.39 144.588 165.419 147.63 163.619 150.672 161.82 149.846 158.069 149.846 158.069 146.446 156.526 147.887 155.806 145.826 154.314" fill="#FFFFFF" transform="matrix(1 0 0 1.01045 453.115 171.169)"/><path d="M127.488 166.404C130.288 171.413 135.465 174.526 141.004 174.526 141.713 174.526 142.434 174.475 143.142 174.374 143.252 173.221 143.177 172.118 143.103 171.055 143.022 169.84 142.944 168.691 143.142 167.569 143.536 165.349 144.066 165.142 145.347 164.644 145.927 164.418 146.656 164.133 147.602 163.572 150.446 161.89 149.865 158.439 149.799 158.104 147.805 157.196 147.478 156.569 147.127 155.903 146.886 155.443 146.632 154.964 145.795 154.357 143.77 152.896 139.952 153.176 139.913 153.18L139.878 153.184 139.863 153.153C139.173 151.907 138.99 150.89 138.858 150.146 138.694 149.234 138.616 148.818 137.837 148.88 136.283 148.997 135.738 152.483 135.683 152.88 135.566 153.69 134.893 155.038 134.865 155.097L134.854 155.112C134.83 155.132 132.536 157.332 131.737 160.293 131.091 162.684 128.575 165.345 127.488 166.404ZM141.004 174.631C138.196 174.631 135.438 173.848 133.031 172.368 130.694 170.93 128.738 168.874 127.375 166.424L127.355 166.385 127.383 166.357C128.446 165.321 130.986 162.653 131.632 160.262 132.415 157.36 134.632 155.178 134.772 155.038 134.83 154.925 135.465 153.628 135.574 152.865 135.672 152.203 136.225 148.896 137.829 148.771 138.706 148.705 138.803 149.238 138.963 150.126 139.095 150.855 139.275 151.852 139.941 153.071 140.33 153.048 143.906 152.861 145.857 154.271 146.718 154.894 146.975 155.381 147.221 155.852 147.563 156.503 147.887 157.118 149.869 158.018L149.893 158.03 149.901 158.057C149.908 158.092 150.699 161.866 147.657 163.666 146.703 164.231 145.97 164.515 145.386 164.745 144.108 165.24 143.633 165.427 143.248 167.588 143.053 168.695 143.131 169.84 143.213 171.047 143.287 172.13 143.361 173.248 143.248 174.424L143.244 174.467 143.201 174.471C142.472 174.58 141.732 174.631 141.004 174.631" transform="matrix(1 0 0 1.01045 453.115 171.169)"/></g><path d="M146.185 156.035C146.185 155.264 145.464 154.357 144.981 153.835 142.862 152.892 139.909 153.126 139.909 153.126 138.39 150.372 139.341 148.709 137.833 148.825 136.326 148.942 135.746 152.066 135.629 152.872 135.512 153.683 134.815 155.073 134.815 155.073 134.815 155.073 132.497 157.27 131.683 160.277 131.465 161.083 131.029 161.925 130.507 162.723 131.317 162.303 132.579 161.333 134.043 159.12 136.595 155.264 138.683 157.114 138.76 157.886 138.838 158.657 136.906 159.042 137.292 160.741 137.678 162.435 139.302 161.278 141.931 161.434 144.56 161.59 146.882 158.735 147.423 157.886 147.965 157.04 146.185 157.192 146.185 156.035" fill="#5C3100" transform="matrix(1 0 0 1.01045 453.115 171.169)"/><path d="M148.755 158.544C148.755 158.544 149.569 159.467 149.76 159.428 149.76 159.428 149.889 158.707 149.632 158.065 149.632 158.065 149.721 158.735 149.336 158.579 148.95 158.427 148.638 158.271 148.755 158.544" fill="#FF9573" transform="matrix(1 0 0 1.01045 453.115 171.169)"/><path d="M138.76 149.441C138.76 149.441 138.375 148.748 137.678 149.211 136.98 149.675 136.014 151.564 136.634 153.683 137.253 155.806 137.872 155.996 137.872 155.996 137.872 155.996 138.546 153.803 139.909 153.126 138.975 151.431 138.975 150.154 138.76 149.445 138.76 149.445 138.76 149.441 138.76 149.441" fill="#FF9573" transform="matrix(1 0 0 1.01045 453.115 171.169)"/><path d="M145.9 157.621C145.406 157.621 144.763 157.317 144.728 157.301L144.775 157.204C144.786 157.208 145.865 157.722 146.235 157.426 146.356 157.329 146.387 157.145 146.321 156.881L146.426 156.853C146.5 157.165 146.457 157.383 146.301 157.508 146.2 157.59 146.056 157.621 145.9 157.621" transform="matrix(1 0 0 1.01045 453.115 171.169)"/><g clip-path="url(#clip3)"><path d="M201.799 158.15C201.799 167.226 194.769 174.58 186.098 174.58 177.427 174.58 170.397 167.226 170.397 158.15 170.397 149.079 177.427 141.725 186.098 141.725 194.769 141.725 201.799 149.079 201.799 158.15" fill="#E6BAF0" transform="matrix(1 0 0 1.01045 453.115 171.169)"/></g><g clip-path="url(#clip4)"><path d="M190.92 154.314C188.856 152.822 185.003 153.126 185.003 153.126 183.484 150.372 184.435 148.709 182.927 148.825 181.42 148.942 180.84 152.066 180.723 152.872 180.606 153.683 179.913 155.073 179.913 155.073 179.913 155.073 177.591 157.27 176.781 160.277 176.123 162.708 173.501 165.434 172.516 166.396 175.234 171.289 180.298 174.58 186.098 174.58 186.842 174.58 187.574 174.522 188.287 174.42 188.532 171.935 187.917 169.684 188.291 167.577 188.856 164.39 189.682 165.419 192.724 163.619 195.766 161.82 194.944 158.069 194.944 158.069 191.54 156.526 192.981 155.806 190.92 154.314" fill="#FFFFFF" transform="matrix(1 0 0 1.01045 453.115 171.169)"/></g><g clip-path="url(#clip5)"><path d="M172.582 166.404C175.383 171.413 180.559 174.526 186.098 174.526 186.811 174.526 187.528 174.475 188.24 174.374 188.346 173.221 188.272 172.118 188.201 171.055 188.116 169.84 188.038 168.691 188.236 167.569 188.634 165.349 189.163 165.142 190.441 164.644 191.025 164.418 191.75 164.133 192.696 163.572 195.54 161.89 194.959 158.439 194.893 158.104 192.903 157.196 192.572 156.569 192.221 155.903 191.98 155.443 191.73 154.964 190.889 154.357 188.867 152.896 185.046 153.176 185.007 153.18L184.976 153.184 184.957 153.153C184.271 151.907 184.088 150.89 183.952 150.146 183.788 149.234 183.714 148.818 182.931 148.88 181.377 148.997 180.832 152.483 180.777 152.88 180.66 153.69 179.987 155.038 179.959 155.097L179.948 155.112C179.924 155.132 177.63 157.332 176.831 160.293 176.185 162.684 173.669 165.345 172.582 166.404ZM186.098 174.631C183.29 174.631 180.532 173.848 178.125 172.368 175.788 170.93 173.832 168.874 172.469 166.424L172.449 166.385 172.481 166.357C173.54 165.321 176.084 162.653 176.726 160.262 177.513 157.36 179.726 155.178 179.866 155.038 179.924 154.925 180.563 153.628 180.672 152.865 180.766 152.203 181.319 148.896 182.923 148.771 183.804 148.705 183.897 149.238 184.057 150.126 184.189 150.855 184.369 151.852 185.035 153.071 185.428 153.048 189 152.861 190.951 154.271 191.812 154.894 192.069 155.381 192.319 155.852 192.657 156.503 192.981 157.118 194.963 158.018L194.991 158.03 194.995 158.057C195.002 158.092 195.793 161.866 192.751 163.666 191.797 164.231 191.068 164.515 190.48 164.745 189.206 165.24 188.727 165.427 188.342 167.588 188.147 168.695 188.225 169.84 188.307 171.047 188.381 172.13 188.458 173.248 188.342 174.424L188.338 174.467 188.295 174.471C187.566 174.58 186.83 174.631 186.098 174.631" transform="matrix(1 0 0 1.01045 453.115 171.169)"/></g><path d="M191.282 156.035C191.282 155.264 190.558 154.357 190.079 153.835 187.96 152.892 185.003 153.126 185.003 153.126 183.484 150.372 184.435 148.709 182.927 148.825 181.42 148.942 180.84 152.066 180.723 152.872 180.606 153.683 179.913 155.073 179.913 155.073 179.913 155.073 177.591 157.27 176.781 160.277 176.563 161.083 176.123 161.925 175.605 162.723 176.411 162.303 177.673 161.333 179.137 159.12 181.689 155.264 183.78 157.114 183.854 157.886 183.932 158.657 182 159.042 182.386 160.741 182.772 162.435 184.396 161.278 187.029 161.434 189.658 161.59 191.976 158.735 192.517 157.886 193.059 157.04 191.282 157.192 191.282 156.035" fill="#5C3100" transform="matrix(1 0 0 1.01045 453.115 171.169)"/><path d="M193.849 158.544C193.849 158.544 194.663 159.467 194.854 159.428 194.854 159.428 194.987 158.707 194.726 158.065 194.726 158.065 194.819 158.735 194.43 158.579 194.044 158.427 193.736 158.271 193.849 158.544" fill="#FF9573" transform="matrix(1 0 0 1.01045 453.115 171.169)"/><path d="M183.854 149.441C183.854 149.441 183.469 148.748 182.772 149.211 182.078 149.675 181.108 151.564 181.728 153.683 182.347 155.806 182.966 155.996 182.966 155.996 182.966 155.996 183.64 153.803 185.003 153.126 184.069 151.431 184.069 150.154 183.858 149.445 183.858 149.445 183.854 149.441 183.854 149.441" fill="#FF9573" transform="matrix(1 0 0 1.01045 453.115 171.169)"/><path d="M190.994 157.621C190.503 157.621 189.857 157.317 189.822 157.301L189.869 157.204C189.88 157.208 190.963 157.722 191.329 157.426 191.45 157.329 191.481 157.145 191.419 156.881L191.524 156.853C191.594 157.165 191.555 157.383 191.399 157.508 191.294 157.59 191.154 157.621 190.994 157.621" transform="matrix(1 0 0 1.01045 453.115 171.169)"/><g clip-path="url(#clip6)"><path d="M248.681 158.15C248.681 167.226 241.65 174.58 232.98 174.58 224.309 174.58 217.279 167.226 217.279 158.15 217.279 149.079 224.309 141.725 232.98 141.725 241.65 141.725 248.681 149.079 248.681 158.15" fill="#28E6E6" transform="matrix(1 0 0 1.01045 453.115 171.169)"/></g><g clip-path="url(#clip7)"><path d="M237.802 154.314C235.738 152.822 231.885 153.126 231.885 153.126 230.366 150.372 231.317 148.709 229.809 148.825 228.302 148.942 227.721 152.066 227.605 152.872 227.488 153.683 226.794 155.073 226.794 155.073 226.794 155.073 224.473 157.27 223.659 160.277 223.004 162.708 220.383 165.434 219.398 166.396 222.116 171.289 227.18 174.58 232.98 174.58 233.724 174.58 234.452 174.522 235.169 174.42 235.414 171.935 234.795 169.684 235.173 167.577 235.738 164.39 236.563 165.419 239.606 163.619 242.648 161.82 241.822 158.069 241.822 158.069 238.421 156.526 239.863 155.806 237.802 154.314" fill="#FFFFFF" transform="matrix(1 0 0 1.01045 453.115 171.169)"/></g><g clip-path="url(#clip8)"><path d="M219.464 166.404C222.264 171.413 227.441 174.526 232.98 174.526 233.689 174.526 234.409 174.475 235.118 174.374 235.227 173.221 235.153 172.118 235.079 171.055 234.998 169.84 234.92 168.691 235.118 167.569 235.516 165.349 236.041 165.142 237.323 164.644 237.907 164.418 238.632 164.133 239.578 163.572 242.422 161.89 241.841 158.439 241.775 158.104 239.781 157.196 239.454 156.569 239.103 155.903 238.862 155.443 238.612 154.964 237.771 154.357 235.745 152.896 231.928 153.176 231.889 153.18L231.854 153.184 231.839 153.153C231.149 151.907 230.966 150.89 230.834 150.146 230.67 149.234 230.596 148.818 229.813 148.88 228.259 148.997 227.714 152.483 227.659 152.88 227.542 153.69 226.868 155.038 226.841 155.097L226.829 155.112C226.806 155.132 224.512 157.332 223.713 160.293 223.067 162.684 220.551 165.345 219.464 166.404ZM232.98 174.631C230.172 174.631 227.414 173.848 225.007 172.368 222.669 170.93 220.714 168.874 219.351 166.424L219.331 166.385 219.359 166.357C220.422 165.321 222.962 162.653 223.608 160.262 224.391 157.36 226.607 155.178 226.748 155.038 226.806 154.925 227.441 153.628 227.55 152.865 227.647 152.203 228.201 148.896 229.805 148.771 230.682 148.705 230.779 149.238 230.939 150.126 231.071 150.855 231.25 151.852 231.917 153.071 232.31 153.048 235.882 152.861 237.833 154.271 238.694 154.894 238.951 155.381 239.197 155.852 239.539 156.503 239.863 157.118 241.845 158.018L241.869 158.03 241.876 158.057C241.884 158.092 242.675 161.866 239.633 163.666 238.678 164.231 237.95 164.515 237.362 164.745 236.088 165.24 235.609 165.427 235.224 167.588 235.029 168.695 235.107 169.84 235.188 171.047 235.262 172.13 235.336 173.248 235.224 174.424L235.22 174.467 235.177 174.471C234.448 174.58 233.708 174.631 232.98 174.631" transform="matrix(1 0 0 1.01045 453.115 171.169)"/></g><path d="M238.16 156.035C238.16 155.264 237.44 154.357 236.957 153.835 234.838 152.892 231.885 153.126 231.885 153.126 230.366 150.372 231.317 148.709 229.809 148.825 228.302 148.942 227.721 152.066 227.605 152.872 227.488 153.683 226.794 155.073 226.794 155.073 226.794 155.073 224.473 157.27 223.659 160.277 223.441 161.083 223.004 161.925 222.486 162.723 223.293 162.303 224.555 161.333 226.019 159.12 228.571 155.264 230.658 157.114 230.736 157.886 230.814 158.657 228.882 159.042 229.268 160.741 229.653 162.435 231.278 161.278 233.907 161.434 236.536 161.59 238.858 158.735 239.399 157.886 239.941 157.04 238.16 157.192 238.16 156.035" fill="#5C3100" transform="matrix(1 0 0 1.01045 453.115 171.169)"/><path d="M240.731 158.544C240.731 158.544 241.545 159.467 241.736 159.428 241.736 159.428 241.865 158.707 241.608 158.065 241.608 158.065 241.697 158.735 241.312 158.579 240.926 158.427 240.614 158.271 240.731 158.544" fill="#FF9573" transform="matrix(1 0 0 1.01045 453.115 171.169)"/><path d="M230.736 149.441C230.736 149.441 230.351 148.748 229.653 149.211 228.96 149.675 227.99 151.564 228.61 153.683 229.229 155.806 229.848 155.996 229.848 155.996 229.848 155.996 230.522 153.803 231.885 153.126 230.951 151.431 230.951 150.154 230.74 149.445 230.736 149.445 230.736 149.441 230.736 149.441" fill="#FF9573" transform="matrix(1 0 0 1.01045 453.115 171.169)"/><path d="M237.876 157.621C237.381 157.621 236.739 157.317 236.704 157.301L236.75 157.204C236.762 157.208 237.845 157.722 238.211 157.426 238.332 157.329 238.363 157.145 238.301 156.881L238.402 156.853C238.476 157.165 238.433 157.383 238.277 157.508 238.176 157.59 238.036 157.621 237.876 157.621" transform="matrix(1 0 0 1.01045 453.115 171.169)"/></g></svg>